<svg width="131" height="32" viewBox="0 0 131 32" fill="none" xmlns="http://www.w3.org/2000/svg">
<rect width="32" height="32" rx="4" fill="#2D68FE"/>
<path d="M16 23.1992L9.76463 12.3992L22.2354 12.3992L16 23.1992Z" fill="white"/>
<path d="M48.6705 7.54545L52.8892 20.8068H53.0511L57.2784 7.54545H61.3693L55.3523 25H50.5966L44.571 7.54545H48.6705ZM64.1584 25H60.2038L66.2294 7.54545H70.9851L77.0021 25H73.0476L68.6754 11.5341H68.5391L64.1584 25ZM63.9112 18.1392H73.2521V21.0199H63.9112V18.1392ZM79.103 7.54545H83.6541L88.4609 19.2727H88.6655L93.4723 7.54545H98.0234V25H94.4439V13.6392H94.299L89.782 24.9148H87.3445L82.8274 13.5966H82.6825V25H79.103V7.54545ZM101.064 25V7.54545H107.95C109.274 7.54545 110.402 7.7983 111.334 8.30398C112.266 8.80398 112.976 9.5 113.464 10.392C113.959 11.2784 114.206 12.3011 114.206 13.4602C114.206 14.6193 113.956 15.642 113.456 16.5284C112.956 17.4148 112.232 18.1051 111.283 18.5994C110.339 19.0937 109.197 19.3409 107.857 19.3409H103.467V16.3835H107.26C107.97 16.3835 108.555 16.2614 109.016 16.017C109.482 15.767 109.828 15.4233 110.055 14.9858C110.288 14.5426 110.405 14.0341 110.405 13.4602C110.405 12.8807 110.288 12.375 110.055 11.9432C109.828 11.5057 109.482 11.1676 109.016 10.929C108.55 10.6847 107.959 10.5625 107.243 10.5625H104.754V25H101.064ZM126.072 12.5653C126.004 11.8778 125.711 11.3437 125.194 10.9631C124.677 10.5824 123.975 10.392 123.089 10.392C122.487 10.392 121.978 10.4773 121.563 10.6477C121.148 10.8125 120.83 11.0426 120.609 11.3381C120.393 11.6335 120.285 11.9688 120.285 12.3438C120.273 12.6562 120.339 12.929 120.481 13.1619C120.629 13.3949 120.83 13.5966 121.086 13.767C121.342 13.9318 121.637 14.0767 121.972 14.2017C122.308 14.321 122.665 14.4233 123.046 14.5085L124.614 14.8835C125.376 15.054 126.075 15.2812 126.711 15.5653C127.347 15.8494 127.898 16.1989 128.364 16.6136C128.83 17.0284 129.191 17.517 129.447 18.0795C129.708 18.642 129.842 19.2869 129.847 20.0142C129.842 21.0824 129.569 22.0085 129.029 22.7926C128.495 23.571 127.722 24.1761 126.711 24.608C125.705 25.0341 124.492 25.2472 123.072 25.2472C121.663 25.2472 120.435 25.0312 119.39 24.5994C118.35 24.1676 117.538 23.5284 116.952 22.6818C116.373 21.8295 116.069 20.7756 116.04 19.5199H119.612C119.651 20.1051 119.819 20.5937 120.114 20.9858C120.415 21.3722 120.816 21.6648 121.316 21.8636C121.822 22.0568 122.393 22.1534 123.029 22.1534C123.654 22.1534 124.197 22.0625 124.657 21.8807C125.123 21.6989 125.484 21.446 125.739 21.1222C125.995 20.7983 126.123 20.4261 126.123 20.0057C126.123 19.6136 126.006 19.2841 125.773 19.017C125.546 18.75 125.211 18.5227 124.768 18.3352C124.33 18.1477 123.793 17.9773 123.157 17.8239L121.256 17.3466C119.785 16.9886 118.623 16.429 117.771 15.6676C116.918 14.9062 116.495 13.8807 116.501 12.5909C116.495 11.5341 116.776 10.6108 117.344 9.82102C117.918 9.03125 118.705 8.41477 119.705 7.97159C120.705 7.52841 121.842 7.30682 123.114 7.30682C124.41 7.30682 125.54 7.52841 126.506 7.97159C127.478 8.41477 128.234 9.03125 128.773 9.82102C129.313 10.6108 129.592 11.5256 129.609 12.5653H126.072Z" fill="#141416"/>
</svg>
