<svg width="152" height="38" viewBox="0 0 152 38" fill="none" xmlns="http://www.w3.org/2000/svg">
<path d="M60.4365 33.7355L47.5665 6.14606L45.1846 1H42.9905L40.6043 6.15025L28.8868 31.0222L27 35H32.7542C33.5481 35 33.9921 34.5143 34.1884 34.0286L36.6131 28.782H51.4168L53.8414 34.0286C54.1872 34.7069 54.533 35 55.2757 35H61L60.4536 33.8192C60.4451 33.7899 60.4365 33.7648 60.4237 33.7355H60.4365ZM39.0462 23.3889L43.8997 12.7032H44.0491L49.0008 23.3889H39.0462Z" fill="black"/>
<path d="M34 1H27.5088C27.0652 1 26.7667 1.29815 26.6686 1.54518L17.1706 22.7903H16.8251L7.32288 1.54518C7.22479 1.29815 6.92624 1 6.48269 1H0L1.42875 4.09647L15.8826 35.5339C15.8826 35.5339 15.9039 35.568 15.9167 35.585L17.0341 38L19.2988 32.8506L32.2002 4.88017L34 1Z" fill="black"/>
<path d="M114.751 1H102V35H107.575C108.077 35 108.527 34.5645 108.527 34.0788V22.6645H114.803C120.927 22.6645 126 17.7571 126 11.736C126 5.71478 120.927 1 114.755 1H114.751ZM114.348 16.7355H108.523V6.97512H114.348C117.162 6.97512 119.521 9.01429 119.521 11.6857C119.521 14.5498 117.162 16.7355 114.348 16.7355Z" fill="black"/>
<path d="M93.4328 4.65961L92.773 1H90.1904L89.1417 3.21921L79.0692 23.9249H78.9163L69.543 4.65961L67.7776 1H65.1863L64.6313 4.19064L61 23.8453L65.6145 34.083L68.5248 15.8645H68.6778L76.2813 32.0397L77.6316 35H80.284L81.6343 32.0397L89.1504 15.8603H89.3034L92.2923 34.2672C92.3928 34.6064 92.7992 34.9958 93.2537 34.9958H99L98.2047 30.7416L93.4241 4.65542L93.4328 4.65961Z" fill="black"/>
<path d="M141.678 14.8035C137.673 13.1524 135.846 11.5531 135.846 9.20369C135.846 7.60436 137.38 5.70327 140.195 5.70327C142.453 5.70327 145.422 7.42761 146.59 8.15184C147.28 8.6131 147.927 9.13903 147.927 9.13903L148.792 7.85008L150.398 5.41013L151.365 4.06083C151.365 4.06083 150.658 3.53922 150.185 3.21159C148.963 2.32787 145.261 0 140.489 0C132.634 0 129.371 5.15148 129.371 9.60029C129.371 15.5019 134.014 18.5022 138.662 20.4033C142.811 22.1018 144.937 23.852 144.937 26.404C144.937 28.5551 143.011 30.2536 140.438 30.2536C137.55 30.2536 134.031 27.874 133.171 27.2834C132.583 26.8739 131.944 26.3523 131.944 26.3523L130.981 28.0465L129.515 30.6028L129 31.5339C129 31.5339 129.673 32.1073 130.214 32.5039C131.628 33.6937 135.126 36 140.634 36C147.604 36 152 31.2494 152 26.0979C152 19.6489 146.466 16.7477 141.674 14.7949L141.678 14.8035Z" fill="black"/>
</svg>
