<svg width="100" height="100" viewBox="0 0 100 100" fill="none" xmlns="http://www.w3.org/2000/svg">
<rect width="100" height="100" rx="50" fill="#E5E7EC"/>
<path d="M50 47.6457C56.6274 47.6457 62 42.2642 62 35.6258C62 28.9874 56.6274 23.606 50 23.606C43.3726 23.606 38 28.9874 38 35.6258C38 42.2642 43.3726 47.6457 50 47.6457Z" fill="#F6F7F8"/>
<path d="M50 78.697C45.8236 78.6968 41.7595 77.2804 38.4152 74.6593C35.0709 72.0383 32.6261 68.3536 31.4464 64.156C29.4106 56.9124 34.5934 49.649 41.8012 49.649H58.1988C65.4066 49.649 70.5894 56.9096 68.5536 64.1532C67.3743 68.3513 64.9298 72.0367 61.5855 74.6582C58.2411 77.2798 54.1767 78.6967 50 78.697Z" fill="white"/>
</svg>
