<svg width="20" height="20" viewBox="0 0 20 20" fill="none" xmlns="http://www.w3.org/2000/svg">
<path fill-rule="evenodd" clip-rule="evenodd" d="M1.97137 0C0.882612 0 0 0.895431 0 2V18C0 19.1046 0.882612 20 1.97137 20H17.7423C18.8311 20 19.7137 19.1046 19.7137 18V14C19.7137 13.4477 19.2724 13 18.728 13C18.1836 13 17.7423 13.4477 17.7423 14V18H1.97137V2H9.85685C10.4012 2 10.8425 1.55228 10.8425 1C10.8425 0.447715 10.4012 0 9.85685 0H1.97137ZM17.8089 0.883789C17.043 0.225197 15.9116 0.255723 15.1814 0.95468L5.34882 10.3657C5.10807 10.5961 4.92839 10.8843 4.82633 11.2037L4.10534 13.4602C3.57719 15.1132 5.23502 16.6161 6.79487 15.8984L9.10679 14.8347C9.30504 14.7434 9.48704 14.6195 9.64538 14.468L19.3814 5.14935C20.2365 4.33095 20.2 2.94006 19.3033 2.16893L17.8089 0.883789ZM16.5342 2.40945L18.0286 3.69458L8.29257 13.0132L5.98064 14.0769L6.70163 11.8204L16.5342 2.40945Z" fill="#38B4B8"/>
</svg>
