<svg width="28" height="28" viewBox="0 0 28 28" fill="none" xmlns="http://www.w3.org/2000/svg">
<path d="M17.5 22.1666C17.5 23.0949 17.1313 23.9851 16.4749 24.6415C15.8185 25.2979 14.9283 25.6666 14 25.6666C13.0717 25.6666 12.1815 25.2979 11.5251 24.6415C10.8688 23.9851 10.5 23.0949 10.5 22.1666M14.8412 5.83677L13.1308 5.83327C9.22951 5.82394 5.84267 8.99377 5.81584 12.8333V17.2549C5.81584 18.1766 5.69917 19.0761 5.19634 19.8426L4.86151 20.3536C4.35167 21.1283 4.90001 22.1666 5.81584 22.1666H22.1842C23.1 22.1666 23.6472 21.1283 23.1385 20.3536L22.8037 19.8426C22.302 19.0761 22.1842 18.1754 22.1842 17.2538V12.8344C22.1375 8.99377 18.7425 5.84611 14.8412 5.83677V5.83677Z" stroke="#141416" stroke-width="2" stroke-linecap="round" stroke-linejoin="round"/>
<path d="M14 2.33325C14.6188 2.33325 15.2123 2.57908 15.6499 3.01667C16.0875 3.45425 16.3333 4.04775 16.3333 4.66659V5.83325H11.6666V4.66659C11.6666 4.04775 11.9125 3.45425 12.35 3.01667C12.7876 2.57908 13.3811 2.33325 14 2.33325Z" stroke="#141416" stroke-width="2" stroke-linecap="round" stroke-linejoin="round"/>
</svg>
