<svg width="20" height="20" viewBox="0 0 20 20" fill="none" xmlns="http://www.w3.org/2000/svg">
<path fill-rule="evenodd" clip-rule="evenodd" d="M6.66667 0C5.43937 0 4.44444 0.942558 4.44444 2.10526V4.21052H3.33333H1.11111C0.497461 4.21052 0 4.6818 0 5.26315C0 5.84451 0.497461 6.31578 1.11111 6.31578H2.23556L2.38355 17.9202C2.39825 19.0729 3.38878 20 4.60561 20H15.5556C16.7829 20 17.7778 19.0574 17.7778 17.8947V6.31578H18.8889C19.5025 6.31578 20 5.84451 20 5.26315C20 4.6818 19.5025 4.21052 18.8889 4.21052H16.6667H15.5556V2.10526C15.5556 0.942558 14.5606 0 13.3333 0H6.66667ZM13.3333 4.21052V2.10526H6.66667V4.21052H13.3333ZM6.66667 6.31578H4.45795L4.60561 17.8947L15.5556 17.8947V6.31578H13.3333H6.66667ZM8.88889 8.42105C8.88889 7.83969 8.39143 7.36842 7.77778 7.36842C7.16413 7.36842 6.66667 7.83969 6.66667 8.42105V14.7368C6.66667 15.3182 7.16413 15.7895 7.77778 15.7895C8.39143 15.7895 8.88889 15.3182 8.88889 14.7368V8.42105ZM12.2222 7.36842C12.8359 7.36842 13.3333 7.83969 13.3333 8.42105V14.7368C13.3333 15.3182 12.8359 15.7895 12.2222 15.7895C11.6086 15.7895 11.1111 15.3182 11.1111 14.7368V8.42105C11.1111 7.83969 11.6086 7.36842 12.2222 7.36842Z" fill="#F72121"/>
</svg>
