<svg width="88" height="87" viewBox="0 0 88 87" fill="none" xmlns="http://www.w3.org/2000/svg">
<rect width="88" height="86.9" fill="#38B4B8"/>
<g clip-path="url(#clip0_157_4355)">
<path d="M46.0089 32.4366C46.0089 33.2416 46.0089 33.686 46.0089 34.1329C46.0089 44.8266 46.0089 55.5203 46.0089 66.214C46.0089 66.6239 46.0539 67.0486 45.9739 67.4436C45.7637 68.5004 45.0908 69.1399 43.985 69.1251C42.8843 69.1103 42.2188 68.4658 42.0312 67.4017C41.9611 67.0017 42.0037 66.5819 42.0037 66.1696C42.0037 55.4759 42.0037 44.7822 42.0037 34.0885C42.0037 33.6514 42.0037 33.2144 42.0037 32.5329C41.5308 32.9626 41.2306 33.2144 40.9504 33.4885C37.323 37.0637 33.7005 40.6415 30.0755 44.2167C29.8404 44.4488 29.6152 44.6958 29.3575 44.9032C28.4369 45.6464 27.2986 45.6044 26.5456 44.8143C25.8226 44.0587 25.7801 42.9699 26.5381 42.1328C27.2861 41.3057 28.1117 40.5477 28.9072 39.7625C33.2977 35.4317 37.6857 31.0984 42.0787 26.7676C43.5597 25.3083 44.4378 25.2935 45.8788 26.7133C50.9222 31.6836 55.9582 36.6588 60.9966 41.6316C61.0842 41.718 61.1767 41.8044 61.2593 41.8958C62.1924 42.8933 62.2575 44.0291 61.4294 44.8538C60.5988 45.6809 59.4155 45.6513 58.4399 44.7032C56.3009 42.6266 54.1895 40.523 52.068 38.4267C50.1317 36.5107 48.1929 34.5946 46.0089 32.4366Z" fill="white"/>
<path d="M44.14 17.7847C50.4719 17.7847 56.8037 17.7847 63.133 17.7847C63.5083 17.7847 63.891 17.7452 64.2563 17.8094C65.332 17.9995 65.9849 18.6514 66 19.7402C66.015 20.8316 65.367 21.4908 64.2988 21.7056C63.9385 21.7772 63.5508 21.7377 63.178 21.7377C50.3893 21.7377 37.6031 21.7377 24.8144 21.7377C24.4816 21.7377 24.1439 21.76 23.8162 21.7205C22.738 21.5921 21.9449 20.7377 22.0025 19.718C22.065 18.6291 22.6929 17.9847 23.7712 17.8044C24.1364 17.7427 24.5192 17.7822 24.8944 17.7822C31.3113 17.7847 37.7257 17.7847 44.14 17.7847Z" fill="white"/>
</g>
<defs>
<clipPath id="clip0_157_4355">
<rect width="44" height="51.35" fill="white" transform="translate(22 17.775)"/>
</clipPath>
</defs>
</svg>
