<svg width="30" height="46" viewBox="0 0 30 46" fill="none" xmlns="http://www.w3.org/2000/svg">
<path d="M3.60601 34.2023C2.71452 34.4125 2.06344 34.5727 1.25209 34.7629C4.59766 26.9455 7.8631 19.3083 11.1486 11.641C14.4541 13.753 15.4658 16.3955 14.394 19.9388C13.5626 22.7215 11.9199 25.0237 10.0868 27.2157C9.78631 27.5761 9.49583 27.9364 9.20534 28.2968C12.2304 26.7253 14.8347 24.7634 16.3372 21.6605C17.2988 19.6686 17.4791 17.5966 16.8982 15.4646C16.0668 12.4217 14.2738 9.98944 11.8998 7.96752C10.9983 7.2068 10.0768 6.47611 9.07513 5.66534C11.7696 3.70349 14.8948 3.31312 17.8698 2.52237C14.5643 2.36222 11.3489 2.61245 8.35392 4.18394C8.09349 4.34409 7.63272 4.48423 7.46244 4.36411C6.2404 3.45325 5.06845 2.47232 3.81636 1.47138C5.85977 1.17109 7.75292 1.13105 9.50584 0.590541C13.4324 -0.620605 17.0284 0.160134 20.5943 1.83172C21.0751 2.05192 21.6361 2.23209 22.1569 2.22209C24.7713 2.15202 27.3756 2.01189 29.99 1.89177C30 1.89177 30 1.90178 30 1.90178C29.5092 2.05192 29.0484 2.19206 28.5776 2.36222C25.9933 3.30311 23.3389 4.07384 20.8648 5.23494C18.591 6.30595 18.5109 7.25685 19.9733 9.26875C23.9299 14.7439 23.8097 20.119 19.5726 25.354C16.8581 28.7071 13.3723 31.1094 9.58598 33.0813C8.92487 33.4216 8.78464 34.0322 8.30384 34.7429L0 45.0026" fill="#F9413D"/>
</svg>
