<svg width="40" height="40" viewBox="0 0 40 40" fill="none" xmlns="http://www.w3.org/2000/svg">
<circle cx="20" cy="20" r="20" fill="#F9413D"/>
<path d="M14.8283 28.3374C14.3454 28.4512 13.9927 28.538 13.5532 28.641C15.3654 24.4066 17.1342 20.2697 18.9138 16.1167C20.7043 17.2607 21.2523 18.692 20.6717 20.6113C20.2214 22.1186 19.3316 23.3656 18.3387 24.553C18.1759 24.7482 18.0186 24.9433 17.8612 25.1385C19.4998 24.2873 20.9105 23.2246 21.7243 21.5439C22.2452 20.4649 22.3429 19.3426 22.0282 18.1878C21.5778 16.5396 20.6066 15.2221 19.3207 14.1269C18.8324 13.7148 18.3333 13.319 17.7907 12.8798C19.2502 11.8172 20.943 11.6057 22.5545 11.1774C20.764 11.0906 19.0223 11.2262 17.4 12.0774C17.259 12.1642 17.0094 12.2401 16.9172 12.175C16.2552 11.6816 15.6204 11.1503 14.9422 10.6081C16.049 10.4455 17.0745 10.4238 18.024 10.131C20.1509 9.47495 22.0987 9.89785 24.0303 10.8033C24.2907 10.9226 24.5945 11.0202 24.8767 11.0147C26.2928 10.9768 27.7035 10.9009 29.1196 10.8358C29.125 10.8358 29.125 10.8412 29.125 10.8412C28.8591 10.9226 28.6096 10.9985 28.3546 11.0906C26.9547 11.6003 25.5169 12.0178 24.1768 12.6467C22.9451 13.2268 22.9017 13.7419 23.6939 14.8317C25.837 17.7974 25.7719 20.7089 23.4768 23.5445C22.0065 25.3608 20.1183 26.662 18.0674 27.7301C17.7093 27.9145 17.6333 28.2452 17.3729 28.6302L12.875 34.1875" fill="white"/>
</svg>
